Coordinates
version=1
nRows=43
nColumns=12
inDegrees=yes

Units are S.I. units (second, meters, Newtons, ...)
Angles are in degrees

endheader
time	SC_y	SC_z	SC_x	AC_y	AC_z	AC_x	GH_y	GH_z	GH_yy	EL_x	PS_y
       0.0              -43.92          1.835          47.19          51.68         -5.924         -16.78          37.56          3.634         -16.48          25.41          54.63
    0.0348              -43.92          1.837          47.19          51.67         -5.924         -16.78          37.54          3.643         -16.47          25.41          54.63
   0.06959              -43.92          1.839          47.18          51.67         -5.924         -16.77          37.52          3.652         -16.46          25.41          54.62
    0.1044              -43.92           1.84          47.18          51.67         -5.924         -16.77           37.5          3.661         -16.45          25.41          54.61
    0.1392              -43.91          1.842          47.17          51.67         -5.924         -16.77          37.47          3.671         -16.44          25.41           54.6
     0.174              -43.91          1.844          47.16          51.67         -5.924         -16.77          37.45          3.682         -16.42          25.41          54.59
    0.2088              -43.91          1.846          47.15          51.66         -5.924         -16.76          37.42          3.694         -16.41          25.41          54.58
    0.2436               -43.9          1.849          47.15          51.66         -5.924         -16.76          37.39          3.706         -16.39          25.41          54.57
    0.2784               -43.9          1.851          47.14          51.66         -5.924         -16.76          37.36          3.719         -16.37          25.41          54.56
    0.3132               -43.9          1.854          47.13          51.65         -5.924         -16.75          37.32          3.733         -16.35          25.41          54.55
     0.348              -43.89          1.857          47.12          51.65         -5.924         -16.75          37.29          3.748         -16.33          25.41          54.54
    0.3828              -43.89           1.86          47.11          51.65         -5.924         -16.74          37.25          3.765         -16.31          25.41          54.52
    0.4176              -43.89          1.863           47.1          51.64         -5.924         -16.74          37.21          3.782         -16.29          25.41          54.51
    0.4524              -43.88          1.867          47.08          51.64         -5.924         -16.73          37.16          3.801         -16.26           25.4          54.49
    0.4872              -43.88          1.871          47.07          51.63         -5.924         -16.73          37.11          3.822         -16.24           25.4          54.48
     0.522              -43.87          1.875          47.06          51.63         -5.924         -16.72          37.06          3.844         -16.21           25.4          54.46
    0.5568              -43.86           1.88          47.04          51.62         -5.924         -16.72           37.0          3.869         -16.18           25.4          54.44
    0.5916              -43.86          1.885          47.02          51.61         -5.924         -16.71          36.93          3.895         -16.14           25.4          54.41
    0.6263              -43.85           1.89           47.0          51.61         -5.923          -16.7          36.86          3.924          -16.1           25.4          54.39
    0.6611              -43.84          1.896          46.98           51.6         -5.923         -16.69          36.79          3.956         -16.06           25.4          54.36
    0.6959              -43.83          1.903          46.96          51.59         -5.923         -16.69           36.7           3.99         -16.02          25.39          54.33
    0.7307              -43.82           1.91          46.94          51.58         -5.923         -16.68          36.61          4.029         -15.97          25.39           54.3
    0.7655              -43.81          1.918          46.91          51.57         -5.923         -16.66          36.51          4.071         -15.91          25.39          54.27
    0.8003               -43.8          1.927          46.88          51.56         -5.923         -16.65          36.39          4.118         -15.85          25.39          54.23
    0.8351              -43.79          1.936          46.85          51.55         -5.923         -16.64          36.27          4.169         -15.78          25.38          54.18
    0.8699              -43.77          1.947          46.81          51.54         -5.923         -16.62          36.13          4.227         -15.71          25.38          54.13
    0.9047              -43.75           1.96          46.77          51.52         -5.923         -16.61          35.97          4.292         -15.62          25.37          54.08
    0.9395              -43.74          1.973          46.72           51.5         -5.922         -16.59          35.79          4.366         -15.53          25.37          54.02
    0.9743              -43.71          1.989          46.66          51.48         -5.922         -16.57          35.59          4.448         -15.42          25.36          53.95
     1.009              -43.69          2.007           46.6          51.46         -5.922         -16.54          35.37          4.542          -15.3          25.36          53.87
     1.044              -43.66          2.027          46.53          51.44         -5.922         -16.52          35.11          4.649         -15.16          25.35          53.78
     1.079              -43.63           2.05          46.45          51.41         -5.922         -16.48          34.81          4.772         -14.99          25.34          53.67
     1.114               -43.6          2.077          46.36          51.37         -5.921         -16.45          34.47          4.914         -14.81          25.34          53.55
     1.148              -43.55          2.108          46.25          51.33         -5.921         -16.41          34.07          5.078         -14.59          25.33          53.41
     1.183               -43.5          2.144          46.13          51.29          -5.92         -16.36           33.6          5.271         -14.34          25.31          53.25
     1.218              -43.45          2.187          45.98          51.23          -5.92          -16.3          33.05          5.499         -14.04           25.3          53.06
     1.253              -43.38          2.238          45.81          51.17         -5.919         -16.23           32.4          5.769         -13.69          25.28          52.83
     1.287              -43.29          2.299           45.6          51.09         -5.919         -16.14          31.61          6.092         -13.27          25.26          52.56
     1.322              -43.19          2.373          45.34           51.0         -5.918         -16.04          30.66          6.484         -12.75          25.24          52.23
     1.357              -43.07          2.464          45.03          50.88         -5.917         -15.92           29.5          6.963         -12.13          25.21          51.82
     1.392              -42.92          2.575          44.65          50.74         -5.915         -15.77          28.07          7.553         -11.35          25.17          51.32
     1.427              -42.73          2.714          44.17          50.57         -5.914         -15.58          26.29           8.29         -10.39          25.13           50.7
     1.461              -42.49           2.89          43.57          50.35         -5.912         -15.34          24.04          9.217         -9.177          25.07          49.92
